<?xml version="1.0" standalone="no"?>
<!DOCTYPE svg PUBLIC "-//W3C//DTD SVG 1.1//EN" "http://www.w3.org/Graphics/SVG/1.1/DTD/svg11.dtd" >
<svg xmlns="http://www.w3.org/2000/svg">
<metadata>
This is a custom SVG webfont generated by Font Squirrel.
Copyright   :  1985 1987 1997 1998 2001 2002 Adobe Systems Incorporated All rights reserved
Designer    : Herb Lubalin
Foundry URL : httpwwwadobecomtype
</metadata>
<defs>
<font id="ITCLubalinGraphStdDemiOblique" horiz-adv-x="1187" >
<font-face units-per-em="2048" ascent="1473" descent="-575" />
<missing-glyph horiz-adv-x="614" />
<glyph unicode=" "  horiz-adv-x="614" />
<glyph unicode="&#x09;" horiz-adv-x="614" />
<glyph unicode="&#xa0;" horiz-adv-x="614" />
<glyph unicode="!" horiz-adv-x="409" d="M76 0l51 289h258l-51 -289h-258zM154 438l180 1024h258l-180 -1024h-258z" />
<glyph unicode="&#x22;" horiz-adv-x="819" d="M281 874l51 588h258l-160 -588h-149zM678 874l51 588h258l-160 -588h-149z" />
<glyph unicode="#" d="M141 489l27 154h272l68 209h-244l29 154h266l146 456h153l-143 -456h211l145 456h156l-146 -456h232l-29 -154h-254l-65 -209h223l-27 -154h-248l-157 -489h-156l156 489h-211l-156 -489h-156l156 489h-248zM596 643h209l67 209h-210z" />
<glyph unicode="$" d="M129 0l76 434h244q-23 -96 30 -164.5t150 -68.5q88 0 157.5 54t83.5 142q16 92 -36 139.5t-150 77.5q-209 63 -281 123q-68 55 -94 142.5t-10 185.5q27 156 151.5 272.5t282.5 137.5l37 215h213l-41 -238q72 -12 107 -78l16 88h192l-71 -401h-228q10 82 -35.5 134 t-127.5 52q-80 0 -144.5 -48t-79.5 -128q-14 -86 32 -128t136 -66q213 -57 297 -125q154 -125 117 -338q-31 -174 -163 -297t-310 -152l-37 -211h-213l43 246l-16 2q-45 16 -64.5 30.5t-42.5 51.5l-14 -84h-207z" />
<glyph unicode="%" horiz-adv-x="1761" d="M266 1135q27 147 152 252.5t272 105.5q152 0 240 -106.5t61 -256.5q-27 -152 -150.5 -258t-275.5 -106q-154 0 -241 107.5t-58 261.5zM449 0l917 1462h201l-916 -1462h-202zM479 1133q-12 -66 24 -110t99 -44q61 0 113.5 44t62.5 105q10 63 -25.5 107.5t-99.5 44.5 q-61 0 -112.5 -43t-61.5 -104zM1030 346q27 147 152 253t272 106q152 0 241 -105.5t62 -255.5q-29 -152 -153.5 -259.5t-274.5 -107.5q-154 0 -241 107.5t-58 261.5zM1243 344q-12 -63 25 -108.5t100 -45.5q61 0 112.5 45.5t61.5 106.5q12 61 -24.5 106.5t-98 45.5 t-114 -43.5t-62.5 -106.5z" />
<glyph unicode="&#x26;" horiz-adv-x="1474" d="M143 395q25 137 120 232.5t253 183.5l-12 14q-61 78 -84 148.5t-6 165.5q27 156 154.5 259t285.5 103q150 0 242 -98t65 -246q-20 -111 -101 -201t-196 -149l197 -232l196 312h304l-39 -228h-146l-172 -258l205 -251l-203 -170l-190 229q-215 -238 -481 -238 q-186 0 -304.5 121t-87.5 303zM416 414q-14 -86 38 -145.5t138 -59.5q152 0 278 174l-225 268q-204 -96 -229 -237zM657 1143q-14 -90 72 -180l14 -17q168 94 185 195q10 59 -19.5 102t-89 43t-106 -41t-56.5 -102z" />
<glyph unicode="'" horiz-adv-x="409" d="M281 874l51 588h258l-160 -588h-149z" />
<glyph unicode="(" horiz-adv-x="737" d="M178 596q51 289 262 532.5t498 333.5l-53 -305q-166 -86 -279.5 -236.5t-144.5 -322.5q-29 -172 31.5 -325.5t193.5 -233.5l-53 -311q-256 98 -381 337.5t-74 530.5z" />
<glyph unicode=")" horiz-adv-x="737" d="M27 -272l53 311q164 80 278.5 233.5t143.5 325.5q31 172 -29.5 321.5t-193.5 237.5l53 305q254 -90 379 -333.5t73 -532.5q-51 -291 -259.5 -531.5t-497.5 -336.5z" />
<glyph unicode="*" horiz-adv-x="737" d="M264 1104l23 131l192 -6l-84 160l125 73l76 -176l127 176l104 -69l-131 -158l191 10l-23 -129l-186 4l78 -153l-123 -74l-70 174l-121 -174l-102 63l127 160z" />
<glyph unicode="+" horiz-adv-x="1351" d="M268 639l33 188h426l76 426h188l-76 -426h426l-32 -188h-426l-76 -426h-189l76 426h-426z" />
<glyph unicode="," horiz-adv-x="614" d="M127 -295l25 139h26q39 0 61.5 21.5t29.5 43t16 64.5l4 27h-111l51 289h258l-57 -328q-27 -135 -84 -192q-41 -41 -80 -52.5t-100 -11.5h-39z" />
<glyph unicode="-" horiz-adv-x="655" d="M139 414l43 248h525l-43 -248h-525z" />
<glyph unicode="." horiz-adv-x="614" d="M178 0l51 289h258l-51 -289h-258z" />
<glyph unicode="/" d="M4 -399l1243 1861h183l-1246 -1861h-180z" />
<glyph unicode="0" d="M150.5 308.5q-17.5 101.5 9.5 223.5l71 410q23 129 67 218t138 171q193 170 420 170q213 0 346 -149q76 -86 94.5 -186.5t-8.5 -223.5l-71 -410q-23 -127 -68 -217t-139 -172q-199 -172 -422 -172q-213 0 -344 152q-76 84 -93.5 185.5zM432 528q-23 -141 12 -209 q51 -98 189 -98q147 0 235 113q49 63 72 194l74 414q27 137 -13 209q-49 100 -186 100q-150 0 -235 -114q-51 -63 -74 -195z" />
<glyph unicode="1" d="M317 0l41 233h172l177 996h-215l40 233h486l-217 -1229h172l-41 -233h-615z" />
<glyph unicode="2" d="M111 0l41 233l616 510q4 4 27.5 22.5t29.5 24t27.5 23.5t29 26.5t26 26t25.5 28.5t19.5 28.5t18.5 32t13 32t9 33.5q14 90 -40 150.5t-144 60.5q-100 0 -177 -72t-89 -174h-264q37 221 204.5 368.5t386.5 147.5q199 0 312.5 -140t79.5 -339q-14 -78 -46 -142.5 t-89.5 -126t-100.5 -99.5t-127 -103l-401 -318h374l29 156h240l-70 -389h-960z" />
<glyph unicode="3" d="M160 422h276q-2 -88 52.5 -147.5t144.5 -59.5q96 0 178 68.5t98 165.5q20 111 -42 177t-173 66h-55l-14 -2l39 213h57q98 0 171 46t89 143q14 82 -29 132t-123 50q-74 0 -133 -47t-75 -123h-252q33 174 181 285.5t324 111.5q174 0 282 -106.5t77 -276.5 q-16 -92 -76.5 -176t-146.5 -125q106 -41 156.5 -146.5t27.5 -230.5q-35 -193 -211 -331q-166 -137 -377 -138q-209 0 -340 123t-106 328z" />
<glyph unicode="4" d="M90 389l37 213l782 860h314l-152 -860h219l-37 -213h-219l-28 -156h170l-41 -233h-611l41 233h170l29 156h-674zM424 602h377l94 531z" />
<glyph unicode="5" d="M127 391h287q16 -80 72.5 -124t142.5 -44q115 0 209 79t114.5 193.5t-47 191.5t-182.5 77q-164 0 -262 -143l-217 59l268 782h778l-41 -233h-563l-113 -309q125 78 271 77q205 0 316.5 -147.5t74.5 -353.5q-41 -229 -230.5 -377t-420.5 -148q-199 0 -325 113.5 t-132 306.5z" />
<glyph unicode="6" d="M154 524q31 170 192 361l496 577h305l-426 -485q63 33 135 33q197 0 303.5 -149.5t71.5 -348.5q-41 -227 -224.5 -384t-410.5 -157q-100 0 -195.5 43t-156.5 113q-131 159 -90 397zM419.5 510q-20.5 -113 44 -193.5t179.5 -80.5q113 0 208 77.5t114 188.5 q20 115 -44.5 195.5t-179.5 80.5q-113 0 -207 -77.5t-114.5 -190.5z" />
<glyph unicode="7" d="M242 0l782 1229h-426l-41 -236h-264l82 469h971l-41 -235l-762 -1227h-301z" />
<glyph unicode="8" d="M160 426q23 121 110.5 225.5t208.5 149.5q-78 37 -112.5 117.5t-18.5 175.5q33 182 183.5 294.5t332.5 112.5q164 0 269.5 -110.5t76.5 -274.5q-35 -199 -219 -301q109 -37 161 -142.5t30 -230.5q-35 -205 -212 -338t-384 -133q-209 0 -336 125t-90 330zM430 442 q-16 -98 42 -165.5t157 -67.5q94 0 173 69.5t95 163.5q16 96 -41 165t-153.5 69t-176.5 -69t-96 -165zM590 1085q-14 -80 30 -134t123 -54q76 0 139.5 54.5t78 130t-29.5 132t-120 56.5q-78 0 -142.5 -54.5t-78.5 -130.5z" />
<glyph unicode="9" d="M227 965q39 217 230.5 376.5t410.5 159.5q213 0 351 -149q141 -160 98 -402q-18 -104 -60.5 -183t-123.5 -177l-496 -590h-338l451 485q-76 -35 -136 -34q-205 0 -314.5 153.5t-72.5 360.5zM498 965q-20 -117 45 -198t182 -81t210 81t114 198q20 111 -48.5 189.5 t-179.5 78.5q-113 0 -208 -78.5t-115 -189.5z" />
<glyph unicode=":" horiz-adv-x="614" d="M178 0l51 289h258l-51 -289h-258zM313 764l52 289h258l-52 -289h-258z" />
<glyph unicode=";" horiz-adv-x="614" d="M127 -295l25 139h26q39 0 61.5 21.5t29.5 43t16 64.5l4 27h-111l51 289h258l-57 -328q-27 -135 -84 -192q-41 -41 -80 -52.5t-100 -11.5h-39zM313 764l52 289h258l-52 -289h-258z" />
<glyph unicode="&#x3c;" horiz-adv-x="1351" d="M225 643l33 180l1196 510l-33 -188l-995 -414l850 -407l-33 -187z" />
<glyph unicode="=" horiz-adv-x="1351" d="M240 477l32 191h1041l-33 -191h-1040zM297 797l33 190h1040l-33 -190h-1040z" />
<glyph unicode="&#x3e;" horiz-adv-x="1351" d="M137 137l33 187l993 407l-848 414l33 188l1016 -510l-33 -180z" />
<glyph unicode="?" horiz-adv-x="1105" d="M250 999q35 209 203 355.5t376 146.5q195 0 311.5 -142t84.5 -337q-16 -94 -60.5 -165t-100.5 -117t-113.5 -88t-108.5 -103.5t-78 -138.5h-258q20 119 85.5 203.5t186.5 181.5q59 45 83 65.5t54.5 64.5t38.5 91q16 88 -35 153.5t-139 65.5q-100 0 -174 -67.5t-92 -168.5 h-264zM434 0l51 289h258l-51 -289h-258z" />
<glyph unicode="@" horiz-adv-x="1802" d="M295 721q57 319 332.5 549.5t597.5 230.5q279 0 446.5 -174t120.5 -448q-37 -211 -170 -359q-74 -82 -175 -137t-196 -55q-66 0 -95.5 31.5t-27.5 97.5q-115 -121 -256 -121q-131 0 -191 96t-36 232q33 178 193.5 332.5t337.5 154.5q66 0 114.5 -35t63.5 -92l35 63h147 l-240 -491q-29 -61 -32 -90q-12 -61 49 -62q47 0 107.5 36t101.5 79q121 121 151 301q41 240 -95 380t-378 140q-272 0 -493 -186q-233 -195 -279 -463q-49 -283 111.5 -462t445.5 -179q317 0 574 217l28 -92q-264 -244 -616 -244q-152 0 -293 51.5t-234 147.5 q-96 100 -137 248.5t-12 302.5zM807 657q-14 -76 15.5 -128t101.5 -52q150 0 262 203q61 117 74 192q10 63 -18 102.5t-91 39.5q-119 0 -221.5 -117t-122.5 -240z" />
<glyph unicode="A" horiz-adv-x="1597" d="M14 0l41 233h156l602 996h-162l41 233h490l295 -1229h155l-41 -233h-616l37 205h162l-48 219h-514l-123 -219h158l-37 -205h-596zM721 639h373l-97 502h-2z" />
<glyph unicode="B" horiz-adv-x="1228" d="M45 0l41 233h158l176 996h-158l41 233h649q201 0 289 -76q93 -82 93 -214q0 -36 -7 -76q-16 -100 -81.5 -184.5t-162.5 -127.5q113 -49 161 -147q33 -67 33 -149q0 -38 -7 -80q-16 -88 -66.5 -171t-126.5 -139q-129 -98 -352 -98h-680zM524 244h154q150 0 209 37 q92 55 110 159q5 24 5 45q0 75 -56 121q-51 43 -194 43h-156zM639 879h141h22h22h22q16 0 22 1t20.5 3t23 5t19.5 7t22.5 9t21.5 11q74 47 90 140q3 19 3 36q0 71 -54 109q-39 29 -170 29h-144z" />
<glyph unicode="C" horiz-adv-x="1556" d="M172 743q53 309 312 533.5t569 224.5q279 0 422 -180l24 147h230l-82 -467h-267q-43 102 -143 163t-221 61q-207 0 -368 -138.5t-195 -345.5q-8 -46 -9 -89q0 -141 87 -250q114 -142 311 -142q127 0 245.5 58.5t204.5 162.5h301q-111 -223 -337 -366.5t-461 -143.5 q-147 0 -279.5 60.5t-218.5 165.5q-139 170 -139 397q0 72 14 149z" />
<glyph unicode="D" horiz-adv-x="1515" d="M45 0l41 233h160l176 996h-160l41 233h694q162 0 275.5 -43t200.5 -149q127 -156 127 -382q0 -76 -15 -161q-53 -299 -278 -510q-231 -217 -572 -217h-690zM528 252h220q119 0 209 26.5t169 102.5q139 133 181 346q12 67 11 126q0 147 -73 245q-57 72 -132 94t-191 22 h-224z" />
<glyph unicode="E" d="M45 0l41 233h160l176 996h-160l41 233h1083l-77 -440h-279l33 190h-367l-63 -364h426l-39 -217h-426l-68 -387h367l35 198h278l-78 -442h-1083z" />
<glyph unicode="F" d="M45 0l41 233h160l176 996h-160l41 233h1092l-78 -440h-279l33 190h-375l-65 -374h424l-37 -215h-424l-70 -390h160l-41 -233h-598z" />
<glyph unicode="G" horiz-adv-x="1597" d="M170 735q53 309 301 529q125 111 281.5 174t308.5 63q260 0 430 -174l25 135h229l-76 -430h-303q-55 94 -141 142q-86 49 -207 49q-203 0 -367 -140.5t-198 -343.5q-8 -48 -9 -91q0 -145 87 -255q114 -143 315 -143q147 0 275 75.5t204 211.5h-541l41 235h850l-135 -772 h-231l39 225q-104 -123 -250 -188.5t-301 -65.5q-315 0 -499 224q-141 171 -141 398q0 68 13 142z" />
<glyph unicode="H" horiz-adv-x="1515" d="M45 0l41 233h160l176 996h-160l41 233h596l-41 -233h-158l-63 -352h563l64 352h-158l41 233h594l-41 -233h-158l-176 -996h158l-41 -233h-594l41 233h157l64 365h-563l-64 -365h158l-41 -233h-596z" />
<glyph unicode="I" horiz-adv-x="696" d="M45 0l41 233h160l176 996h-160l41 233h596l-41 -233h-158l-176 -996h158l-41 -233h-596z" />
<glyph unicode="J" horiz-adv-x="1105" d="M96 412h291q-2 -17 -2 -34q0 -53 26 -94q34 -54 105 -55q88 0 152 80q41 57 59 185l131 735h-160l41 233h596l-41 -233h-157l-138 -770q-20 -115 -52 -190.5t-107 -149.5q-72 -70 -171.5 -109t-195.5 -39q-201 0 -309 122q-79 88 -79 217q0 48 11 102z" />
<glyph unicode="K" horiz-adv-x="1474" d="M45 0l41 233h160l176 996h-160l41 233h596l-41 -233h-158l-75 -428l528 428h-131l41 233h602l-41 -233h-125l-604 -479l455 -517h129l-41 -233h-623l41 233h143l-395 453l-80 -453h158l-41 -233h-596z" />
<glyph unicode="L" horiz-adv-x="1146" d="M45 0l41 233h160l176 996h-160l41 233h596l-41 -233h-158l-172 -979h351l32 192h279l-78 -442h-1067z" />
<glyph unicode="M" horiz-adv-x="1966" d="M37 0l41 233h160l176 996h-160l41 233h549l215 -1032l579 1032h549l-41 -233h-159l-177 -996h160l-41 -233h-596l41 233h158l149 850l-594 -1083h-196l-225 1083l-150 -850h170l-41 -233h-608z" />
<glyph unicode="N" horiz-adv-x="1638" d="M45 0l41 233h158l176 996h-158l41 233h410l524 -979l131 746h-160l41 233h596l-41 -233h-157l-217 -1229h-261l-518 963l-129 -730h160l-41 -233h-596z" />
<glyph unicode="O" horiz-adv-x="1597" d="M170 731q57 322 321.5 545t585.5 223q313 0 499 -222q143 -171 143 -395q0 -67 -13 -139q-57 -322 -321.5 -548t-583.5 -226q-317 0 -502 224q-142 172 -142 397q0 68 13 141zM459 739q-9 -50 -9 -96q0 -143 86 -252q114 -143 314 -143q203 0 368.5 144.5t200.5 348.5 q8 45 8 88q0 141 -89 250q-116 141 -312 142q-201 0 -366.5 -140.5t-200.5 -341.5z" />
<glyph unicode="P" horiz-adv-x="1228" d="M47 0l41 233h158l176 996h-158l41 233h582q256 0 373 -96q122 -104 121 -279q0 -48 -9 -102q-37 -205 -203 -344q-156 -135 -395 -135h-201l-49 -273h160l-41 -233h-596zM616 758h166q131 0 197 49q92 68 113 178q4 23 4 45q0 85 -66 133q-53 45 -180 45h-154z" />
<glyph unicode="Q" horiz-adv-x="1761" d="M172 743q55 311 317.5 534.5t573.5 223.5q319 0 506 -222q144 -171 143 -399q0 -68 -12 -141q-51 -283 -258 -477q74 -59 155 -65l25 135h205l-66 -371l-88 -6q-262 0 -424 147q-225 -131 -450 -131q-322 0 -503 226q-138 171 -138 397q0 72 14 149zM459 707 q129 49 264 49q311 0 537 -305q125 121 151 278q8 48 8 93q0 146 -87 256q-114 144 -318.5 144.5t-368.5 -147.5q-150 -131 -180 -293zM475 485q43 -113 145.5 -174t233.5 -61q115 0 211 55q-84 106 -177 165.5t-220 59.5q-105 0 -193 -45z" />
<glyph unicode="R" horiz-adv-x="1310" d="M45 0l41 233h158l176 996h-158l41 233h653q125 0 211 -22.5t152 -89.5q116 -116 116 -284q0 -48 -10 -101q-29 -166 -152.5 -296t-287.5 -145l176 -291h166l-41 -233h-342l-346 657l-76 -424h125l-41 -233h-561zM602 684h152q164 0 254 59q115 80 137 211q6 30 5 58 q0 93 -65 149q-25 25 -60.5 36t-61 13t-76.5 2h-193z" />
<glyph unicode="S" horiz-adv-x="1064" d="M51 0l76 434h254q-4 -24 -4 -46q0 -64 35 -112q51 -66 147 -65q94 0 165 54t85 147q3 17 3 33q0 22 -6 41q-11 34 -27.5 53.5t-54.5 39t-58.5 26.5t-67.5 22q-186 57 -264 125q-111 93 -112 241q0 37 7 78q31 178 184.5 300t334.5 122q174 0 239 -113l14 82h213l-69 -393 h-250q3 18 3 34q0 59 -35 102q-44 54 -126 55q-84 0 -149.5 -49.5t-79.5 -133.5q-3 -17 -4 -33q0 -22 7 -40q11 -33 24.5 -51.5t53.5 -37t55 -23.5t67 -22q207 -59 288 -133q100 -92 100 -228q0 -38 -7 -79q-35 -199 -189.5 -329t-353.5 -130q-180 0 -260 125l-17 -96h-221z " />
<glyph unicode="T" horiz-adv-x="1228" d="M217 1001l82 461h1151l-82 -461h-221l39 213h-215l-174 -981h159l-41 -233h-598l41 233h160l174 981h-215l-39 -213h-221z" />
<glyph unicode="U" horiz-adv-x="1433" d="M264 1229l41 233h569l-40 -233h-134l-120 -688q-11 -63 -11 -111q0 -59 17 -94q49 -102 182 -103q119 0 205 89q63 68 92 219l121 688h-133l41 233h569l-41 -233h-158l-129 -725q-23 -125 -66.5 -215t-133.5 -170q-168 -147 -412 -148q-242 0 -354 135q-70 82 -85 187 q-6 38 -6 78q0 69 17 141l127 717h-158z" />
<glyph unicode="V" horiz-adv-x="1515" d="M231 1229l41 233h592l-41 -233h-139l139 -844l459 844h-141l41 233h575l-41 -233h-155l-664 -1229h-305l-203 1229h-158z" />
<glyph unicode="W" horiz-adv-x="2088" d="M231 1229l41 233h594l-41 -233h-159l71 -768l441 1001h235l105 -993l331 760h-163l40 233h594l-41 -233h-161l-543 -1229h-264l-101 965l-440 -965h-260l-133 1229h-146z" />
<glyph unicode="X" horiz-adv-x="1515" d="M39 0l41 233h143l498 508l-299 488h-150l41 233h602l-38 -215h-136l183 -311l288 311h-135l39 215h604l-41 -233h-147l-479 -488l315 -508h150l-41 -233h-600l38 215h144l-205 334l-322 -334h146l-39 -215h-600z" />
<glyph unicode="Y" horiz-adv-x="1392" d="M231 1229l41 233h566l-41 -233h-135l159 -484l330 484h-139l41 233h563l-41 -233h-145l-512 -719l-50 -277h160l-41 -233h-596l41 233h158l49 277l-260 719h-148z" />
<glyph unicode="Z" horiz-adv-x="1146" d="M41 0l39 219l872 1000h-413l-35 -201h-248l78 444h997l-37 -211l-878 -1007h475l35 200h256l-78 -444h-1063z" />
<glyph unicode="[" horiz-adv-x="778" d="M37 -264l305 1726h610l-41 -235h-329l-222 -1256h330l-43 -235h-610z" />
<glyph unicode="\" horiz-adv-x="1269" d="M479 1462h207l365 -1462h-205z" />
<glyph unicode="]" horiz-adv-x="778" d="M37 -264l43 235h330l221 1256h-330l41 235h610l-305 -1726h-610z" />
<glyph unicode="^" horiz-adv-x="1351" d="M141 356l701 1106h180l315 -1106h-186l-256 908l-567 -908h-187z" />
<glyph unicode="_" horiz-adv-x="1024" d="M-45 -256l18 102h1024l-18 -102h-1024z" />
<glyph unicode="`" horiz-adv-x="942" d="M408 1485l139 221l495 -295l-114 -182z" />
<glyph unicode="a" horiz-adv-x="1351" d="M121 541q41 240 238.5 410.5t437.5 170.5q221 0 307 -184l26 156h392l-41 -234h-138l-110 -627h137l-41 -233h-391l27 147q-150 -176 -383.5 -176t-367.5 168q-103 129 -103 296q0 51 10 106zM379 541q-6 -31 -6 -61q0 -95 61 -169q80 -96 213 -96q141 0 255 98.5 t138 239.5q5 30 5 58q0 99 -62 172q-80 95 -215 96q-139 0 -252.5 -99.5t-136.5 -238.5z" />
<glyph unicode="b" horiz-adv-x="1351" d="M35 0l41 233h141l176 996h-141l41 233h391l-92 -526q145 174 369 174q231 0 367 -166q105 -128 105 -294q0 -50 -10 -103q-39 -225 -215 -385q-88 -82 -199.5 -130t-217.5 -48q-111 0 -200 46t-136 134l-29 -164h-391zM514 553q-7 -35 -6 -67q0 -99 61 -173 q82 -98 224 -98q137 0 248.5 100.5t134.5 235.5q6 32 5 62q0 98 -61 172q-80 97 -217 97.5t-251.5 -96t-137.5 -233.5z" />
<glyph unicode="c" d="M121 547q41 231 232.5 405t420.5 174q186 0 289 -137l18 105h215l-63 -365h-234q-33 66 -98 109q-66 41 -147 41q-139 0 -249 -96.5t-134 -235.5q-6 -33 -6 -63q0 -99 61 -172q80 -95 217 -95q82 0 162 41t127 111h278q-80 -172 -256 -285t-356 -113q-238 0 -378 168 q-109 130 -108 303q0 51 9 105z" />
<glyph unicode="d" horiz-adv-x="1351" d="M121 547q41 229 232.5 397t422.5 168q104 0 191.5 -47t136.5 -131l53 295h-143l41 233h393l-217 -1229h141l-41 -233h-391l29 164q-150 -180 -389 -180q-227 0 -364 168q-105 129 -105 293q1 49 10 102zM381 543q-6 -32 -6 -62q0 -96 60 -171q79 -97 216 -97 q139 0 254 99.5t137 238.5q6 32 6 61q0 96 -61 170q-80 96 -213 97q-139 0 -253.5 -98.5t-139.5 -237.5z" />
<glyph unicode="e" d="M123 543q43 244 236.5 413.5t435.5 169.5q236 0 379 -176q93 -120 92 -288q0 -58 -11 -121l-24 -88h-885q4 -113 84 -188t197 -75q176 0 288 132h261q-92 -158 -250 -254.5t-328 -96.5q-240 0 -379 166q-106 127 -106 297q0 52 10 109zM379 645h663q-12 117 -94 187.5 t-205 70.5q-111 0 -217 -74.5t-147 -183.5z" />
<glyph unicode="f" horiz-adv-x="655" d="M35 0l41 233h141l111 627h-142l41 234h142q70 408 495 407l-39 -223h-4q-181 0 -203 -184h144l-41 -234h-143l-111 -627h143l-41 -233h-534z" />
<glyph unicode="g" horiz-adv-x="1351" d="M70 -94h288q18 -66 81 -100.5t141 -34.5q143 0 249 100q57 57 81 111.5t40 142.5l6 41q-143 -182 -381 -182q-231 0 -363 167q-101 127 -101 292q0 51 10 106q41 227 235.5 395t419.5 168q248 0 332 -178l29 160h370l-41 -234h-141l-125 -715q-27 -147 -70 -242.5 t-143 -181.5q-199 -166 -457 -165q-184 0 -317 91t-143 259zM377 551q-6 -32 -6 -63q0 -99 62 -175q81 -98 220.5 -98t253 99.5t137.5 238.5q5 30 5 58q0 100 -63 175q-81 96 -218 96.5t-251.5 -97t-139.5 -234.5z" />
<glyph unicode="h" horiz-adv-x="1310" d="M35 0l41 233h141l176 996h-141l41 233h391l-94 -532q141 188 360 188q190 0 283 -160q43 -76 46 -165v-24q0 -79 -17 -159l-68 -377h141l-41 -233h-532l41 233h141l55 310q16 86 16 144q0 55 -14 85q-47 100 -180 100q-121 0 -203 -88q-31 -31 -51 -71.5t-25 -66 t-16 -81.5l-59 -332h141l-41 -233h-532z" />
<glyph unicode="i" horiz-adv-x="614" d="M39 0l41 233h143l111 627h-141l40 234h392l-152 -861h141l-41 -233h-534zM393 1198l47 264h250l-47 -264h-250z" />
<glyph unicode="j" horiz-adv-x="573" d="M-47 -412l39 232q84 4 134 53t62.5 90t28.5 137q2 12 4 19l131 741h-141l41 234h391l-190 -1078q-37 -213 -159 -314.5t-341 -113.5zM412 1198l47 264h250l-47 -264h-250z" />
<glyph unicode="k" horiz-adv-x="1228" d="M35 0l41 233h143l176 996h-143l41 233h393l-151 -858l329 281h-112l36 209h539l-41 -234h-133l-352 -291l260 -336h172l-41 -233h-596l41 233h92l-209 287l-51 -287h98l-41 -233h-491z" />
<glyph unicode="l" horiz-adv-x="614" d="M35 0l41 233h151l176 996h-141l41 233h391l-217 -1229h141l-40 -233h-543z" />
<glyph unicode="m" horiz-adv-x="2007" d="M41 0l41 233h141l111 627h-141l40 234h369l-29 -164q150 190 349 190q113 0 192.5 -62.5t108.5 -166.5q61 104 171.5 166.5t225.5 62.5q193 0 291 -139q48 -69 48 -166q0 -86 -20 -168l-73 -414h141l-41 -233h-532l41 233h141l61 353q14 71 15 123q0 44 -11 75 q-47 90 -163.5 90t-198.5 -81q-63 -68 -88 -207l-62 -353h142l-41 -233h-533l41 233h142l59 336q14 79 14 133q0 45 -10 72q-18 47 -62 73.5t-102 26.5q-109 0 -188 -79q-74 -76 -99 -224l-59 -338h141l-41 -233h-532z" />
<glyph unicode="n" horiz-adv-x="1310" d="M35 0l41 233h141l111 627h-142l41 234h391l-26 -156q129 180 354 180q190 0 293 -135q49 -68 53 -152q1 -13 1 -25q0 -71 -19 -144l-76 -429h141l-41 -233h-532l41 233h141l64 355q9 58 8 102q0 61 -16 94q-51 88 -179 88q-133 0 -215 -92q-55 -59 -88 -229l-55 -318h141 l-41 -233h-532z" />
<glyph unicode="o" d="M121 551q43 240 242.5 407.5t437.5 167.5q236 0 373 -169q106 -130 105 -299q0 -51 -9 -105q-43 -242 -241 -412t-437 -170q-238 0 -375 171q-106 132 -106 303q1 51 10 106zM369 553q-6 -33 -6 -64q0 -97 58 -173q77 -99 214 -99t249.5 96.5t137.5 233.5q5 31 5 60 q0 98 -58 174q-76 99 -211 99.5t-250.5 -96t-138.5 -231.5z" />
<glyph unicode="p" horiz-adv-x="1351" d="M-35 -399l41 233h139l181 1026h-140l41 234h391l-30 -172q152 184 391 184q231 0 366 -165q103 -126 102 -293q0 -51 -9 -105q-41 -227 -229.5 -393t-413.5 -166q-242 0 -342 170l-56 -320h142l-41 -233h-533zM520 545q-6 -32 -6 -63q0 -98 61 -171q80 -96 218 -96 q135 0 248.5 96.5t138.5 231.5q5 31 5 59q0 98 -60 175q-77 99 -212 100q-139 0 -253.5 -96.5t-139.5 -235.5z" />
<glyph unicode="q" horiz-adv-x="1351" d="M121 543q41 231 233.5 397t423.5 166q240 0 324 -184l31 172h391l-41 -234h-140l-180 -1026h140l-41 -233h-533l41 233h141l56 320q-162 -170 -400 -170q-225 0 -356 167q-100 127 -100 288q0 50 10 104zM381 543q-6 -32 -6 -62q0 -96 61 -170q80 -96 215 -96 q137 0 250 96.5t137 233.5q6 33 6 63q0 100 -62 173q-81 95 -222 96q-135 0 -245.5 -99.5t-133.5 -234.5z" />
<glyph unicode="r" horiz-adv-x="778" d="M35 0l41 233h141l111 627h-142l41 234h373l-33 -187q125 188 363 199l-45 -256q-135 -6 -230 -80q-106 -78 -139 -260l-49 -277h141l-41 -233h-532z" />
<glyph unicode="s" horiz-adv-x="942" d="M51 0l55 317h256q-1 -10 0 -19q0 -60 33 -99q39 -45 115 -45q59 0 111.5 37.5t62.5 97.5q2 13 2 24q0 31 -16 54q-23 31 -51.5 42t-77.5 25q-10 2 -17 4q-70 18 -110.5 31.5t-97 42.5t-84 62.5t-43.5 88.5q-9 30 -8 65q0 28 5 58q27 152 151 241t277 89q170 0 232 -98 l12 76h184l-51 -297h-241q1 9 1 17q0 45 -28 76q-33 36 -92 36q-55 0 -103.5 -31t-56.5 -84q-6 -37 4 -62.5t39 -42t50.5 -22.5t60.5 -16q70 -16 114.5 -30.5t100 -42.5t84 -62.5t44.5 -90.5q9 -31 8 -66q0 -29 -5 -61q-29 -160 -159 -252t-292 -92q-180 0 -262 119l-16 -90 h-191z" />
<glyph unicode="t" horiz-adv-x="696" d="M176 860l41 234h172l66 368h250l-66 -368h186l-41 -234h-186l-111 -627h199l-41 -233h-448l151 860h-172z" />
<glyph unicode="u" horiz-adv-x="1310" d="M178 860l41 234h391l-104 -592q-11 -61 -11 -107q0 -62 19 -98q43 -94 166 -94q115 0 201 90q57 63 86 215l61 352h-141l41 234h391l-152 -861h142l-41 -233h-371l25 135q-68 -78 -164 -121t-195 -43q-186 0 -278 140q-52 77 -52 197q0 55 11 120l75 432h-141z" />
<glyph unicode="v" horiz-adv-x="1228" d="M166 860l41 234h510l-41 -234h-111l103 -553h2l313 553h-117l41 234h504l-41 -234h-129l-496 -860h-262l-184 860h-133z" />
<glyph unicode="w" horiz-adv-x="1802" d="M166 860l41 234h506l-41 -234h-121l67 -514h3l354 707h205l88 -707h2l258 514h-125l41 234h516l-41 -234h-145l-451 -860h-242l-86 643l-348 -643h-233l-111 860h-137z" />
<glyph unicode="x" horiz-adv-x="1269" d="M35 0l41 233h129l346 320l-229 307h-123l41 234h503l-32 -193h-93l134 -190l200 190h-92l33 193h498l-41 -234h-123l-332 -307l235 -320h127l-40 -233h-517l37 205h86l-127 194l-194 -194h86l-37 -205h-516z" />
<glyph unicode="y" horiz-adv-x="1228" d="M166 860l41 234h516l-41 -234h-107l101 -534l301 534h-107l41 234h510l-41 -234h-137l-604 -1026h143l-41 -233h-532l41 233h137l105 180l-183 846h-143z" />
<glyph unicode="z" horiz-adv-x="942" d="M25 0l34 201l672 659h-311l-23 -129h-219l64 363h839l-39 -226l-639 -635h336l23 121h219l-63 -354h-893z" />
<glyph unicode="{" horiz-adv-x="655" d="M180 604q57 8 113 45q31 23 50 54.5t24.5 52t13.5 67.5l59 336q33 174 103 234q41 35 106.5 51t96 17t112.5 1q-92 -27 -137 -81t-64 -150l-63 -354q-20 -121 -66.5 -185.5t-158.5 -87.5q100 -25 126.5 -85t6.5 -173l-68 -379q-18 -98 7.5 -150.5t111.5 -80.5h-42h-44 q-10 0 -38 1t-41 5t-33.5 9t-38 14.5t-33.5 21.5q-76 55 -47 217l67 379q10 43 8 80t-24 72q-35 51 -107 69z" />
<glyph unicode="|" horiz-adv-x="888" d="M473 -575v2304h207v-2304h-207z" />
<glyph unicode="}" horiz-adv-x="655" d="M29 -264q96 29 138 81t60 150l68 379q20 113 67.5 173.5t155.5 84.5q-102 23 -126.5 88.5t-4.5 184.5l64 354q18 96 -7.5 150.5t-109.5 78.5h104q51 0 102.5 -16.5t82.5 -50.5q51 -63 20 -234l-59 -336q-14 -47 -11.5 -95t37.5 -79q41 -35 97 -45q-78 -20 -132 -69 q-53 -53 -69 -152l-68 -379q-27 -162 -121 -217q-20 -12 -40.5 -21.5t-44 -14.5t-38 -9t-42 -5t-37.5 -1h-44h-42z" />
<glyph unicode="~" horiz-adv-x="1351" d="M195 643q96 119 187 187.5t204 68.5q90 0 254 -68q160 -70 213 -69q18 0 36.5 4t36 16.5t30.5 20.5t31.5 27.5t27 27.5t28 31.5t23.5 28.5l131 -95q-78 -88 -114 -123.5t-110.5 -77.5t-152.5 -42q-76 0 -205 51l-90 39q-12 4 -39 15t-43 17.5t-40.5 11.5t-43.5 5 q-23 0 -42 -5t-38.5 -16.5t-34 -20.5t-34 -29.5t-27.5 -31t-29.5 -36t-27.5 -33.5z" />
<glyph unicode="&#xa2;" d="M250 727q29 168 163 306t304 171l35 203h204l-34 -199q100 -27 153 -100l15 80h157l-57 -332h-238q-16 51 -64 79t-108 28q-96 0 -176 -67t-96 -165q-18 -98 39 -163.5t158 -65.5q102 0 192 90h274q-119 -256 -417 -334l-35 -199h-205l37 207q-160 29 -245 162t-56 299z " />
<glyph unicode="&#xa3;" d="M115 0l39 215h151q61 10 104.5 53t53.5 109q8 47 -3 94t-24.5 70.5t-46.5 72.5h-254l37 205h137q-45 94 -24 215q35 193 197.5 326t342.5 133q135 0 222 -115l14 84h229l-71 -405h-230q12 92 -41 147q-49 55 -137 56q-96 0 -174 -70t-96 -174q-16 -113 43 -197h374 l-36 -205h-252q74 -115 57 -211q-20 -119 -125 -188h127q127 0 184 43q82 55 103 166q6 39 0 76h215q10 -51 2 -109q-35 -184 -193 -297q-129 -94 -335 -94h-590z" />
<glyph unicode="&#xa5;" d="M154 539l20 116h342l-22 88h-304l21 117h246l-109 371h-131l41 231h498l-41 -231h-117l131 -488l301 488h-117l41 231h492l-41 -231h-129l-236 -371h238l-21 -117h-294l-60 -88h338l-20 -116h-396l-16 -31l-49 -275h141l-41 -233h-524l41 233h139l49 275l-12 31h-399z " />
<glyph unicode="&#xa7;" horiz-adv-x="942" d="M90 84l6 31h219q-23 -84 19.5 -131t128.5 -47q76 0 136 40.5t73 114.5q8 43 -3.5 74t-45 50.5t-57 26.5t-72.5 19q-336 80 -287 354q18 100 89 178t173 111q-186 78 -158 246q25 137 146 224t262 87q152 0 247 -86t66 -235h-209q16 55 -24 94q-39 35 -97 35 q-63 0 -114 -38t-64 -102q-6 -39 6.5 -67.5t39 -45t57 -28.5t63.5 -22q16 -4 23 -6q129 -37 180 -95q94 -98 65 -245q-33 -188 -231 -285q186 -70 152 -266q-27 -150 -159 -244t-284 -94q-172 0 -266 94q-107 102 -80 258zM414 612q-12 -68 30.5 -109.5t110.5 -41.5 q63 0 119.5 44t68.5 107q10 66 -30.5 110t-106.5 44q-68 0 -125 -44t-67 -110z" />
<glyph unicode="&#xa8;" horiz-adv-x="942" d="M367 1198l47 264h250l-48 -264h-249zM748 1198l47 264h249l-47 -264h-249z" />
<glyph unicode="&#xa9;" horiz-adv-x="1679" d="M207 737q57 317 319 540.5t580 223.5q313 0 498.5 -222t130.5 -536q-57 -324 -319.5 -548t-586.5 -224q-311 0 -493 225.5t-129 540.5zM311 739q-49 -274 111 -467.5t434 -193.5q270 0 497.5 191.5t274.5 461.5q49 279 -109.5 471.5t-435.5 192.5q-270 0 -497.5 -193 t-274.5 -463zM537 729q35 205 187.5 337t354.5 132q133 0 235.5 -65.5t108.5 -184.5l-145 -33q0 94 -58.5 145.5t-160.5 51.5q-150 0 -253.5 -109.5t-131.5 -265.5q-27 -156 35.5 -259t214.5 -103q207 0 311 207l117 -39q-63 -125 -191.5 -191.5t-267.5 -66.5 q-197 0 -294 123.5t-62 320.5z" />
<glyph unicode="&#xaa;" horiz-adv-x="860" d="M229.5 1151q24.5 141 141 245.5t256.5 104.5q131 0 186 -92l14 74h246l-26 -152h-84l-64 -354h84l-27 -152h-245l12 72q-88 -90 -217 -90q-141 0 -221 101.5t-55.5 242.5zM395 1151q-14 -76 31 -130t121 -54q80 0 143.5 55t79.5 135q12 76 -33 130t-121 54 q-80 0 -143.5 -55t-77.5 -135z" />
<glyph unicode="&#xab;" horiz-adv-x="737" d="M154 451l34 194l304 291l-31 -236l-160 -161l105 -160l-52 -221zM483 451l33 186l301 295l-31 -244l-153 -151l100 -152l-51 -217z" />
<glyph unicode="&#xac;" horiz-adv-x="1351" d="M221 797l33 190h1192l-111 -631h-190l78 441h-1002z" />
<glyph unicode="&#xad;" horiz-adv-x="655" d="M139 414l43 248h525l-43 -248h-525z" />
<glyph unicode="&#xae;" horiz-adv-x="1679" d="M207 739q55 317 319.5 539.5t579.5 222.5t499.5 -224t127.5 -542q-55 -317 -319.5 -540.5t-582.5 -223.5q-315 0 -497 226.5t-127 541.5zM313 739q-49 -279 110 -470t437 -191q270 0 496.5 195.5t273.5 465.5q47 274 -113.5 466t-435.5 192q-270 0 -495.5 -194 t-272.5 -464zM578 291l159 909h416q145 0 211 -41q94 -59 70 -207q-23 -123 -108 -184t-214 -66l188 -411h-149l-174 411h-199l-71 -411h-129zM797 801h237q51 0 89 5t79 19.5t67.5 49t37.5 86.5q8 47 -6.5 78.5t-49 45t-68.5 18.5t-79 5h-254z" />
<glyph unicode="&#xaf;" horiz-adv-x="1064" d="M375 1305l37 200h786l-37 -200h-786z" />
<glyph unicode="&#xb0;" horiz-adv-x="819" d="M313.5 1194q22.5 127 128 217t232.5 90q125 0 200.5 -90t53 -217t-129 -217t-233.5 -90t-200.5 90t-51 217zM457 1194q-12 -68 26.5 -114t108.5 -50q70 0 125 47t67.5 117t-26.5 117t-108.5 47t-125 -47t-67.5 -117z" />
<glyph unicode="&#xb1;" horiz-adv-x="1351" d="M193 209l32 188h1041l-33 -188h-1040zM301 827l33 189h426l43 237h188l-43 -237h426l-33 -189h-426l-43 -241h-188l43 241h-426z" />
<glyph unicode="&#xb4;" horiz-adv-x="942" d="M393 1407l598 307l70 -219l-612 -266z" />
<glyph unicode="&#xb5;" horiz-adv-x="1310" d="M106 -399l222 1259h-142l41 234h391l-104 -592q-51 -299 174 -299q20 0 50 8t81 31.5t93 87t59 157.5l65 373h-141l41 234h391l-151 -861h141l-41 -233h-371l25 135q-68 -78 -164 -121t-195 -43q-86 0 -145 29l-70 -399h-250z" />
<glyph unicode="&#xb6;" horiz-adv-x="1105" d="M225 1096q33 170 174 276q119 90 312 90h655l-41 -233h-141l-264 -1493h-185l264 1493h-200l-264 -1493h-185l176 995q-154 4 -241 107.5t-60 257.5z" />
<glyph unicode="&#xb7;" horiz-adv-x="614" d="M283 590l51 289h258l-51 -289h-258z" />
<glyph unicode="&#xb8;" horiz-adv-x="737" d="M78 -362h151q8 -61 62 -62q35 0 59.5 21.5t30.5 54.5t-11.5 56.5t-50.5 23.5q-39 0 -75 -33l-115 51l143 250h160l-82 -141l27 2q84 0 129 -60.5t29 -144.5q-16 -100 -93 -164.5t-178 -64.5q-92 0 -144 60.5t-42 150.5z" />
<glyph unicode="&#xba;" horiz-adv-x="737" d="M238 1161q25 143 142.5 241.5t260.5 98.5q139 0 222 -99t59 -237q-25 -143 -144 -245.5t-262 -102.5q-141 0 -222 101.5t-56 242.5zM399 1161q-14 -76 28 -130t118 -54t138 53t77 129q12 74 -31 128t-117 54q-76 0 -138.5 -53t-74.5 -127z" />
<glyph unicode="&#xbb;" horiz-adv-x="737" d="M115 168l26 217l152 152l-98 151l55 244l196 -295l-32 -186zM440 158l29 221l156 160l-101 161l54 236l202 -291l-35 -194z" />
<glyph unicode="&#xc0;" horiz-adv-x="1597" d="M14 0l41 233h156l602 996h-162l41 233h490l295 -1229h155l-41 -233h-616l37 205h162l-48 219h-514l-123 -219h158l-37 -205h-596zM721 639h373l-97 502h-2zM760 1853l139 222l496 -295l-115 -183z" />
<glyph unicode="&#xc1;" horiz-adv-x="1597" d="M14 0l41 233h156l602 996h-162l41 233h490l295 -1229h155l-41 -233h-616l37 205h162l-48 219h-514l-123 -219h158l-37 -205h-596zM721 639h373l-97 502h-2zM745 1776l596 307l70 -219l-610 -267z" />
<glyph unicode="&#xc2;" horiz-adv-x="1597" d="M14 0l41 233h156l602 996h-162l41 233h490l295 -1229h155l-41 -233h-616l37 205h162l-48 219h-514l-123 -219h158l-37 -205h-596zM623 1661l415 344h172l293 -344h-282l-131 154l-185 -154h-282zM721 639h373l-97 502h-2z" />
<glyph unicode="&#xc3;" horiz-adv-x="1597" d="M14 0l41 233h156l602 996h-162l41 233h490l295 -1229h155l-41 -233h-616l37 205h162l-48 219h-514l-123 -219h158l-37 -205h-596zM698 1851q109 76 222 76q59 0 145 -29q84 -31 143 -30q96 0 168 55l90 -166q-121 -92 -245 -92q-59 0 -147.5 30.5t-127.5 30.5 q-72 0 -147 -59zM721 639h373l-97 502h-2z" />
<glyph unicode="&#xc4;" horiz-adv-x="1597" d="M14 0l41 233h156l602 996h-162l41 233h490l295 -1229h155l-41 -233h-616l37 205h162l-48 219h-514l-123 -219h158l-37 -205h-596zM719 1567l47 264h250l-47 -264h-250zM721 639h373l-97 502h-2zM1100 1567l47 264h250l-47 -264h-250z" />
<glyph unicode="&#xc5;" horiz-adv-x="1597" d="M14 0l41 233h156l602 996h-162l41 233h490l295 -1229h155l-41 -233h-616l37 205h162l-48 219h-514l-123 -219h158l-37 -205h-596zM721 639h373l-97 502h-2zM860 1837q18 98 102.5 168t182.5 70t154.5 -72t40 -170t-99.5 -169t-181 -71q-100 0 -157.5 71t-41.5 173z M1004 1831q-8 -39 16 -66.5t63 -27.5q41 0 73 28.5t40 71.5q8 39 -16.5 66.5t-63.5 27.5q-41 0 -73.5 -29.5t-38.5 -70.5z" />
<glyph unicode="&#xc6;" horiz-adv-x="2007" d="M14 0l41 233h162l856 996h-153l41 233h1257l-78 -440h-278l34 192h-370l-66 -368h428l-37 -211h-428l-69 -389h370l35 196h279l-78 -442h-1086l35 197h158l41 233h-432l-195 -233h160l-35 -197h-592zM838 635h307l84 475h-2z" />
<glyph unicode="&#xc7;" horiz-adv-x="1556" d="M172 743q53 309 312 533.5t569 224.5q279 0 422 -180l24 147h230l-82 -467h-267q-43 102 -143 163t-221 61q-207 0 -368 -138.5t-195 -345.5q-35 -197 78.5 -339t310.5 -142q127 0 245.5 58.5t204.5 162.5h301q-104 -211 -312 -350t-433 -156l-68 -116l27 2 q84 0 129 -60.5t29 -144.5q-16 -100 -93 -164.5t-178 -64.5q-92 0 -144 60t-42 151h151q8 -61 62 -62q35 0 59.5 21.5t30.5 54.5t-11.5 56.5t-49.5 23.5q-39 0 -76 -33l-115 51l131 230q-246 39 -393 217q-182 222 -125 546z" />
<glyph unicode="&#xc8;" d="M45 0l41 233h160l176 996h-160l41 233h1083l-77 -440h-279l33 190h-367l-63 -364h426l-39 -217h-426l-68 -387h367l35 198h278l-78 -442h-1083zM596 1853l139 222l496 -295l-115 -183z" />
<glyph unicode="&#xc9;" d="M45 0l41 233h160l176 996h-160l41 233h1083l-77 -440h-279l33 190h-367l-63 -364h426l-39 -217h-426l-68 -387h367l35 198h278l-78 -442h-1083zM582 1776l596 307l69 -219l-610 -267z" />
<glyph unicode="&#xca;" d="M45 0l41 233h160l176 996h-160l41 233h1083l-77 -440h-279l33 190h-367l-63 -364h426l-39 -217h-426l-68 -387h367l35 198h278l-78 -442h-1083zM438 1661l416 344h172l293 -344h-283l-131 154l-184 -154h-283z" />
<glyph unicode="&#xcb;" d="M45 0l41 233h160l176 996h-160l41 233h1083l-77 -440h-279l33 190h-367l-63 -364h426l-39 -217h-426l-68 -387h367l35 198h278l-78 -442h-1083zM555 1567l47 264h250l-47 -264h-250zM936 1567l47 264h250l-47 -264h-250z" />
<glyph unicode="&#xcc;" horiz-adv-x="696" d="M45 0l41 233h160l176 996h-160l41 233h596l-41 -233h-158l-176 -996h158l-41 -233h-596zM350 1853l139 222l496 -295l-115 -183z" />
<glyph unicode="&#xcd;" horiz-adv-x="696" d="M45 0l41 233h160l176 996h-160l41 233h596l-41 -233h-158l-176 -996h158l-41 -233h-596zM336 1776l596 307l69 -219l-610 -267z" />
<glyph unicode="&#xce;" horiz-adv-x="696" d="M45 0l41 233h160l176 996h-160l41 233h596l-41 -233h-158l-176 -996h158l-41 -233h-596zM213 1661l416 344h172l293 -344h-283l-131 154l-184 -154h-283z" />
<glyph unicode="&#xcf;" horiz-adv-x="696" d="M45 0l41 233h160l176 996h-160l41 233h596l-41 -233h-158l-176 -996h158l-41 -233h-596zM309 1567l47 264h250l-47 -264h-250zM690 1567l47 264h250l-47 -264h-250z" />
<glyph unicode="&#xd0;" horiz-adv-x="1515" d="M45 0l41 233h160l69 398h-159l39 217h159l68 381h-160l41 233h694q162 0 275.5 -43t200.5 -149q170 -209 112 -543q-53 -299 -278 -510q-231 -217 -572 -217h-690zM528 252h220q119 0 209 26.5t169 102.5q139 133 181 346q41 233 -62 371q-57 72 -132 94t-191 22h-224 l-65 -366h278l-39 -217h-278z" />
<glyph unicode="&#xd1;" horiz-adv-x="1638" d="M45 0l41 233h158l176 996h-158l41 233h410l524 -979l131 746h-160l41 233h596l-41 -233h-157l-217 -1229h-261l-518 963l-129 -730h160l-41 -233h-596zM760 1851q109 76 221 76q59 0 145 -29q84 -31 144 -30q96 0 168 55l90 -166q-121 -92 -246 -92q-59 0 -147 30.5 t-127 30.5q-72 0 -148 -59z" />
<glyph unicode="&#xd2;" horiz-adv-x="1597" d="M170 731q57 322 321.5 545t585.5 223q313 0 498.5 -222t130.5 -534q-57 -322 -321.5 -548t-583.5 -226q-317 0 -501.5 223.5t-129.5 538.5zM459 739q-37 -205 76.5 -348t314.5 -143q203 0 368.5 144.5t200.5 348.5q35 197 -80.5 338.5t-312.5 141.5q-201 0 -366.5 -140.5 t-200.5 -341.5zM801 1853l139 222l496 -295l-115 -183z" />
<glyph unicode="&#xd3;" horiz-adv-x="1597" d="M170 731q57 322 321.5 545t585.5 223q313 0 498.5 -222t130.5 -534q-57 -322 -321.5 -548t-583.5 -226q-317 0 -501.5 223.5t-129.5 538.5zM459 739q-37 -205 76.5 -348t314.5 -143q203 0 368.5 144.5t200.5 348.5q35 197 -80.5 338.5t-312.5 141.5q-201 0 -366.5 -140.5 t-200.5 -341.5zM786 1776l596 307l70 -219l-610 -267z" />
<glyph unicode="&#xd4;" horiz-adv-x="1597" d="M170 731q57 322 321.5 545t585.5 223q313 0 498.5 -222t130.5 -534q-57 -322 -321.5 -548t-583.5 -226q-317 0 -501.5 223.5t-129.5 538.5zM459 739q-37 -205 76.5 -348t314.5 -143q203 0 368.5 144.5t200.5 348.5q35 197 -80.5 338.5t-312.5 141.5q-201 0 -366.5 -140.5 t-200.5 -341.5zM643 1661l416 344h172l293 -344h-283l-131 154l-184 -154h-283z" />
<glyph unicode="&#xd5;" horiz-adv-x="1597" d="M170 731q57 322 321.5 545t585.5 223q313 0 498.5 -222t130.5 -534q-57 -322 -321.5 -548t-583.5 -226q-317 0 -501.5 223.5t-129.5 538.5zM459 739q-37 -205 76.5 -348t314.5 -143q203 0 368.5 144.5t200.5 348.5q35 197 -80.5 338.5t-312.5 141.5q-201 0 -366.5 -140.5 t-200.5 -341.5zM739 1851q109 76 222 76q59 0 145 -29q84 -31 143 -30q96 0 168 55l90 -166q-121 -92 -245 -92q-59 0 -147.5 30.5t-127.5 30.5q-72 0 -147 -59z" />
<glyph unicode="&#xd6;" horiz-adv-x="1597" d="M170 731q57 322 321.5 545t585.5 223q313 0 498.5 -222t130.5 -534q-57 -322 -321.5 -548t-583.5 -226q-317 0 -501.5 223.5t-129.5 538.5zM459 739q-37 -205 76.5 -348t314.5 -143q203 0 368.5 144.5t200.5 348.5q35 197 -80.5 338.5t-312.5 141.5q-201 0 -366.5 -140.5 t-200.5 -341.5zM760 1567l47 264h250l-47 -264h-250zM1141 1567l47 264h250l-47 -264h-250z" />
<glyph unicode="&#xd8;" horiz-adv-x="1597" d="M102 18l185 187q-170 223 -115 528q57 322 320.5 545t582.5 223q182 0 348 -98l25 -17l178 179l133 -123l-176 -178q168 -225 113 -537q-57 -317 -322.5 -536.5t-585.5 -219.5q-184 0 -309 72l-65 37l-181 -184zM455 731q-27 -143 59 -295l717 725q-47 25 -70.5 35 t-63.5 19.5t-85 9.5q-195 0 -358.5 -147.5t-198.5 -346.5zM637 307q123 -59 211 -59q203 0 366.5 141t198.5 344q14 104 2 163.5t-55 139.5z" />
<glyph unicode="&#xd9;" horiz-adv-x="1433" d="M264 1229l41 233h569l-40 -233h-134l-120 -688q-25 -141 6 -205q49 -102 182 -103q119 0 205 89q63 68 92 219l121 688h-133l41 233h569l-41 -233h-158l-129 -725q-23 -125 -66.5 -215t-133.5 -170q-168 -147 -412 -148q-242 0 -354 135q-70 82 -85.5 186.5t11.5 219.5 l127 717h-158zM719 1853l139 222l496 -295l-115 -183z" />
<glyph unicode="&#xda;" horiz-adv-x="1433" d="M264 1229l41 233h569l-40 -233h-134l-120 -688q-25 -141 6 -205q49 -102 182 -103q119 0 205 89q63 68 92 219l121 688h-133l41 233h569l-41 -233h-158l-129 -725q-23 -125 -66.5 -215t-133.5 -170q-168 -147 -412 -148q-242 0 -354 135q-70 82 -85.5 186.5t11.5 219.5 l127 717h-158zM705 1776l595 307l70 -219l-610 -267z" />
<glyph unicode="&#xdb;" horiz-adv-x="1433" d="M264 1229l41 233h569l-40 -233h-134l-120 -688q-25 -141 6 -205q49 -102 182 -103q119 0 205 89q63 68 92 219l121 688h-133l41 233h569l-41 -233h-158l-129 -725q-23 -125 -66.5 -215t-133.5 -170q-168 -147 -412 -148q-242 0 -354 135q-70 82 -85.5 186.5t11.5 219.5 l127 717h-158zM582 1661l415 344h172l293 -344h-282l-131 154l-185 -154h-282z" />
<glyph unicode="&#xdc;" horiz-adv-x="1433" d="M264 1229l41 233h569l-40 -233h-134l-120 -688q-25 -141 6 -205q49 -102 182 -103q119 0 205 89q63 68 92 219l121 688h-133l41 233h569l-41 -233h-158l-129 -725q-23 -125 -66.5 -215t-133.5 -170q-168 -147 -412 -148q-242 0 -354 135q-70 82 -85.5 186.5t11.5 219.5 l127 717h-158zM698 1567l47 264h250l-47 -264h-250zM1079 1567l47 264h250l-47 -264h-250z" />
<glyph unicode="&#xdd;" horiz-adv-x="1392" d="M231 1229l41 233h566l-41 -233h-135l159 -484l330 484h-139l41 233h563l-41 -233h-145l-512 -719l-50 -277h160l-41 -233h-596l41 233h158l49 277l-260 719h-148zM684 1776l596 307l70 -219l-611 -267z" />
<glyph unicode="&#xde;" horiz-adv-x="1228" d="M47 0l41 233h158l176 996h-158l41 233h596l-41 -233h-160l-14 -80h145q86 0 153 -6t132.5 -23.5t106.5 -47.5t74.5 -76t36.5 -110.5t-7 -152.5q-37 -213 -193.5 -311t-392.5 -98h-200l-17 -91h160l-41 -233h-596zM580 547h165q135 0 209 38t93 148q14 78 -19 122 t-87 57.5t-140 13.5h-154z" />
<glyph unicode="&#xdf;" horiz-adv-x="1228" d="M25 0l41 233h143l129 732q41 231 176 364q84 80 185.5 126t183.5 46q182 0 288.5 -119.5t73.5 -302.5q-16 -94 -75.5 -172t-149.5 -112q141 -23 204.5 -131.5t37.5 -260.5q-35 -193 -178.5 -314.5t-323.5 -121.5q-106 0 -201 39l41 234q68 -43 152 -43q92 0 168.5 62.5 t93.5 154.5q20 121 -63 178t-210 57h-55l39 221h33q86 0 151.5 53.5t79.5 139.5q14 82 -28.5 135t-116.5 53q-96 0 -178 -92q-10 -12 -19.5 -24.5t-15.5 -22.5t-12.5 -26.5t-9.5 -23.5t-7 -28l-5 -25q-1 -5 -6 -28t-5 -27l-168 -954h-393z" />
<glyph unicode="&#xe0;" horiz-adv-x="1351" d="M121 541q41 240 238.5 410.5t437.5 170.5q221 0 307 -184l26 156h392l-41 -234h-138l-110 -627h137l-41 -233h-391l27 147q-150 -176 -383.5 -176t-367.5 168.5t-93 401.5zM379 541q-25 -133 55 -229.5t213 -96.5q141 0 255 98.5t138 239.5q23 135 -57 230.5t-215 95.5 q-139 0 -252.5 -99.5t-136.5 -238.5zM612 1485l140 221l495 -295l-114 -182z" />
<glyph unicode="&#xe1;" horiz-adv-x="1351" d="M121 541q41 240 238.5 410.5t437.5 170.5q221 0 307 -184l26 156h392l-41 -234h-138l-110 -627h137l-41 -233h-391l27 147q-150 -176 -383.5 -176t-367.5 168.5t-93 401.5zM379 541q-25 -133 55 -229.5t213 -96.5q141 0 255 98.5t138 239.5q23 135 -57 230.5t-215 95.5 q-139 0 -252.5 -99.5t-136.5 -238.5zM598 1407l598 307l70 -219l-613 -266z" />
<glyph unicode="&#xe2;" horiz-adv-x="1351" d="M121 541q41 240 238.5 410.5t437.5 170.5q221 0 307 -184l26 156h392l-41 -234h-138l-110 -627h137l-41 -233h-391l27 147q-150 -176 -383.5 -176t-367.5 168.5t-93 401.5zM379 541q-25 -133 55 -229.5t213 -96.5q141 0 255 98.5t138 239.5q23 135 -57 230.5t-215 95.5 q-139 0 -252.5 -99.5t-136.5 -238.5zM453 1272l413 344h172l295 -344h-282l-131 153l-185 -153h-282z" />
<glyph unicode="&#xe3;" horiz-adv-x="1351" d="M121 541q41 240 238.5 410.5t437.5 170.5q221 0 307 -184l26 156h392l-41 -234h-138l-110 -627h137l-41 -233h-391l27 147q-150 -176 -383.5 -176t-367.5 168.5t-93 401.5zM379 541q-25 -133 55 -229.5t213 -96.5q141 0 255 98.5t138 239.5q23 135 -57 230.5t-215 95.5 q-139 0 -252.5 -99.5t-136.5 -238.5zM532 1483q104 76 220 76q57 0 147 -29q80 -31 141 -31q96 0 168 55l92 -165q-121 -92 -245 -93q-59 0 -148.5 31t-128.5 31q-72 0 -147 -60z" />
<glyph unicode="&#xe4;" horiz-adv-x="1351" d="M121 541q41 240 238.5 410.5t437.5 170.5q221 0 307 -184l26 156h392l-41 -234h-138l-110 -627h137l-41 -233h-391l27 147q-150 -176 -383.5 -176t-367.5 168.5t-93 401.5zM379 541q-25 -133 55 -229.5t213 -96.5q141 0 255 98.5t138 239.5q23 135 -57 230.5t-215 95.5 q-139 0 -252.5 -99.5t-136.5 -238.5zM551 1198l47 264h250l-47 -264h-250zM932 1198l47 264h250l-47 -264h-250z" />
<glyph unicode="&#xe5;" horiz-adv-x="1351" d="M121 541q41 240 238.5 410.5t437.5 170.5q221 0 307 -184l26 156h392l-41 -234h-138l-110 -627h137l-41 -233h-391l27 147q-150 -176 -383.5 -176t-367.5 168.5t-93 401.5zM379 541q-25 -133 55 -229.5t213 -96.5q141 0 255 98.5t138 239.5q23 135 -57 230.5t-215 95.5 q-139 0 -252.5 -99.5t-136.5 -238.5zM651 1468q18 98 102.5 168t182.5 70t154.5 -71.5t40 -170t-99.5 -169t-181 -70.5q-100 0 -157.5 70.5t-41.5 172.5zM795 1462q-8 -39 16.5 -66.5t62.5 -27.5q41 0 74 29.5t39 70.5q8 39 -15.5 67t-62.5 28q-41 0 -73.5 -30t-40.5 -71z " />
<glyph unicode="&#xe6;" horiz-adv-x="2129" d="M125 559q41 227 237.5 397t423.5 170q217 0 318 -172l24 140h250l-26 -154q162 186 385 186q229 0 365 -169t96 -400q-16 -94 -23 -94h-889q2 -109 82 -178.5t193 -69.5q141 0 266 113h289q-96 -162 -258 -259.5t-336 -97.5q-104 0 -186.5 52.5t-121.5 140.5l-28 -164 h-250l29 168q-68 -92 -163 -144.5t-198 -52.5q-242 0 -382 172t-97 416zM375 561q-25 -143 55 -244.5t221 -101.5q147 0 264 98.5t144 245.5q25 135 -62.5 234.5t-222.5 99.5q-133 0 -253.5 -99.5t-145.5 -232.5zM1317 653h641q-14 104 -90 172t-185 68q-117 0 -212 -64.5 t-154 -175.5z" />
<glyph unicode="&#xe7;" d="M121 547q41 231 232.5 405t420.5 174q186 0 289 -137l18 105h215l-63 -365h-234q-33 66 -98 109q-66 41 -147 41q-139 0 -249 -96.5t-134.5 -235.5t55.5 -234.5t217 -95.5q82 0 162 41t127 111h278q-72 -156 -225.5 -264.5t-318.5 -127.5l-70 -118l27 2q84 0 129 -60.5 t28 -144.5q-16 -100 -93 -164.5t-177 -64.5q-92 0 -144.5 60t-41.5 151h151q8 -61 62 -62q35 0 59.5 21.5t30.5 54.5t-11.5 56.5t-50.5 23.5q-39 0 -76 -33l-114 51l131 232q-203 33 -313.5 192.5t-71.5 372.5z" />
<glyph unicode="&#xe8;" d="M123 543q43 244 236.5 413.5t435.5 169.5q236 0 379 -176q125 -162 81 -409l-24 -88h-885q4 -113 84 -188t197 -75q176 0 288 132h261q-92 -158 -250 -254.5t-328 -96.5q-240 0 -379 166t-96 406zM379 645h663q-12 117 -94 187.5t-205 70.5q-111 0 -217 -74.5 t-147 -183.5zM510 1485l139 221l496 -295l-115 -182z" />
<glyph unicode="&#xe9;" d="M123 543q43 244 236.5 413.5t435.5 169.5q236 0 379 -176q125 -162 81 -409l-24 -88h-885q4 -113 84 -188t197 -75q176 0 288 132h261q-92 -158 -250 -254.5t-328 -96.5q-240 0 -379 166t-96 406zM379 645h663q-12 117 -94 187.5t-205 70.5q-111 0 -217 -74.5 t-147 -183.5zM516 1407l598 307l70 -219l-613 -266z" />
<glyph unicode="&#xea;" d="M123 543q43 244 236.5 413.5t435.5 169.5q236 0 379 -176q125 -162 81 -409l-24 -88h-885q4 -113 84 -188t197 -75q176 0 288 132h261q-92 -158 -250 -254.5t-328 -96.5q-240 0 -379 166t-96 406zM371 1272l413 344h172l295 -344h-282l-131 153l-185 -153h-282zM379 645 h663q-12 117 -94 187.5t-205 70.5q-111 0 -217 -74.5t-147 -183.5z" />
<glyph unicode="&#xeb;" d="M123 543q43 244 236.5 413.5t435.5 169.5q236 0 379 -176q125 -162 81 -409l-24 -88h-885q4 -113 84 -188t197 -75q176 0 288 132h261q-92 -158 -250 -254.5t-328 -96.5q-240 0 -379 166t-96 406zM379 645h663q-12 117 -94 187.5t-205 70.5q-111 0 -217 -74.5 t-147 -183.5zM469 1198l47 264h250l-47 -264h-250zM850 1198l47 264h250l-47 -264h-250z" />
<glyph unicode="&#xec;" horiz-adv-x="614" d="M39 0l41 233h143l111 627h-141l40 234h392l-152 -861h141l-41 -233h-534zM244 1485l139 221l496 -295l-115 -182z" />
<glyph unicode="&#xed;" horiz-adv-x="614" d="M39 0l41 233h143l111 627h-141l40 234h392l-152 -861h141l-41 -233h-534zM229 1407l598 307l70 -219l-612 -266z" />
<glyph unicode="&#xee;" horiz-adv-x="614" d="M39 0l41 233h143l111 627h-141l40 234h392l-152 -861h141l-41 -233h-534zM84 1272l414 344h172l295 -344h-283l-131 153l-184 -153h-283z" />
<glyph unicode="&#xef;" horiz-adv-x="614" d="M39 0l41 233h143l111 627h-141l40 234h392l-152 -861h141l-41 -233h-534zM203 1198l47 264h250l-47 -264h-250zM584 1198l47 264h250l-47 -264h-250z" />
<glyph unicode="&#xf0;" d="M121 551q43 240 242.5 407.5t437.5 167.5q51 0 86 -8q-47 53 -96 90l-312 -88l-147 109l295 86q-86 47 -193 80l307 80q80 -25 164 -78l269 78l147 -117l-272 -76q297 -291 221 -729q-43 -242 -241 -412t-437 -170q-238 0 -375 171t-96 409zM369 553q-25 -137 52 -236.5 t214 -99.5t249.5 96.5t137.5 233.5q23 135 -53 234.5t-211 99.5t-250.5 -96.5t-138.5 -231.5z" />
<glyph unicode="&#xf1;" horiz-adv-x="1310" d="M35 0l41 233h141l111 627h-142l41 234h391l-26 -156q129 180 354 180q190 0 293 -135q49 -68 53 -151.5t-18 -169.5l-76 -429h141l-41 -233h-532l41 233h141l64 355q20 139 -8 196q-51 88 -179 88q-133 0 -215 -92q-55 -59 -88 -229l-55 -318h141l-41 -233h-532z M532 1483q104 76 220 76q57 0 147 -29q80 -31 141 -31q96 0 168 55l92 -165q-121 -92 -245 -93q-59 0 -148.5 31t-128.5 31q-72 0 -147 -60z" />
<glyph unicode="&#xf2;" d="M121 551q43 240 242.5 407.5t437.5 167.5q236 0 373 -169t96 -404q-43 -242 -241 -412t-437 -170q-238 0 -375 171t-96 409zM369 553q-25 -137 52 -236.5t214 -99.5t249.5 96.5t137.5 233.5q23 135 -53 234.5t-211 99.5t-250.5 -96.5t-138.5 -231.5zM530 1485l140 221 l495 -295l-114 -182z" />
<glyph unicode="&#xf3;" d="M121 551q43 240 242.5 407.5t437.5 167.5q236 0 373 -169t96 -404q-43 -242 -241 -412t-437 -170q-238 0 -375 171t-96 409zM369 553q-25 -137 52 -236.5t214 -99.5t249.5 96.5t137.5 233.5q23 135 -53 234.5t-211 99.5t-250.5 -96.5t-138.5 -231.5zM516 1407l598 307 l70 -219l-613 -266z" />
<glyph unicode="&#xf4;" d="M121 551q43 240 242.5 407.5t437.5 167.5q236 0 373 -169t96 -404q-43 -242 -241 -412t-437 -170q-238 0 -375 171t-96 409zM369 553q-25 -137 52 -236.5t214 -99.5t249.5 96.5t137.5 233.5q23 135 -53 234.5t-211 99.5t-250.5 -96.5t-138.5 -231.5zM391 1272l414 344 h172l295 -344h-283l-131 153l-184 -153h-283z" />
<glyph unicode="&#xf5;" d="M121 551q43 240 242.5 407.5t437.5 167.5q236 0 373 -169t96 -404q-43 -242 -241 -412t-437 -170q-238 0 -375 171t-96 409zM369 553q-25 -137 52 -236.5t214 -99.5t249.5 96.5t137.5 233.5q23 135 -53 234.5t-211 99.5t-250.5 -96.5t-138.5 -231.5zM471 1483 q104 76 219 76q57 0 148 -29q80 -31 141 -31q96 0 168 55l92 -165q-121 -92 -246 -93q-59 0 -148 31t-128 31q-72 0 -148 -60z" />
<glyph unicode="&#xf6;" d="M121 551q43 240 242.5 407.5t437.5 167.5q236 0 373 -169t96 -404q-43 -242 -241 -412t-437 -170q-238 0 -375 171t-96 409zM369 553q-25 -137 52 -236.5t214 -99.5t249.5 96.5t137.5 233.5q23 135 -53 234.5t-211 99.5t-250.5 -96.5t-138.5 -231.5zM469 1198l47 264h250 l-47 -264h-250zM850 1198l47 264h250l-47 -264h-250z" />
<glyph unicode="&#xf7;" horiz-adv-x="1351" d="M268 639l33 188h1040l-32 -188h-1041zM633 287l39 223h188l-39 -223h-188zM750 956l41 224h188l-41 -224h-188z" />
<glyph unicode="&#xf8;" horiz-adv-x="1228" d="M88 -4l131 145l-12 15q-63 100 -76 147q-33 117 -10 242q43 242 244.5 411.5t445.5 169.5q152 0 258 -63l127 139l125 -110l-127 -136q135 -174 96 -389q-43 -248 -239.5 -422t-444.5 -174q-127 0 -262 62l-135 -146zM369 551q-18 -113 43 -207l469 512q-72 29 -121 29 q-141 0 -253.5 -97.5t-137.5 -236.5zM537 238q70 -25 106 -25q143 0 258 95t139 239q18 102 -39 196z" />
<glyph unicode="&#xf9;" horiz-adv-x="1310" d="M178 860l41 234h391l-104 -592q-25 -141 8 -205q43 -94 166 -94q115 0 201 90q57 63 86 215l61 352h-141l41 234h391l-152 -861h142l-41 -233h-371l25 135q-68 -78 -164 -121t-195 -43q-186 0 -278 140q-76 113 -41 317l75 432h-141zM571 1485l140 221l495 -295 l-114 -182z" />
<glyph unicode="&#xfa;" horiz-adv-x="1310" d="M178 860l41 234h391l-104 -592q-25 -141 8 -205q43 -94 166 -94q115 0 201 90q57 63 86 215l61 352h-141l41 234h391l-152 -861h142l-41 -233h-371l25 135q-68 -78 -164 -121t-195 -43q-186 0 -278 140q-76 113 -41 317l75 432h-141zM557 1407l598 307l70 -219l-613 -266 z" />
<glyph unicode="&#xfb;" horiz-adv-x="1310" d="M178 860l41 234h391l-104 -592q-25 -141 8 -205q43 -94 166 -94q115 0 201 90q57 63 86 215l61 352h-141l41 234h391l-152 -861h142l-41 -233h-371l25 135q-68 -78 -164 -121t-195 -43q-186 0 -278 140q-76 113 -41 317l75 432h-141zM412 1272l413 344h172l295 -344h-282 l-131 153l-185 -153h-282z" />
<glyph unicode="&#xfc;" horiz-adv-x="1310" d="M178 860l41 234h391l-104 -592q-25 -141 8 -205q43 -94 166 -94q115 0 201 90q57 63 86 215l61 352h-141l41 234h391l-152 -861h142l-41 -233h-371l25 135q-68 -78 -164 -121t-195 -43q-186 0 -278 140q-76 113 -41 317l75 432h-141zM530 1198l48 264h249l-47 -264h-250z M911 1198l47 264h250l-47 -264h-250z" />
<glyph unicode="&#xfd;" horiz-adv-x="1228" d="M166 860l41 234h516l-41 -234h-107l101 -534l301 534h-107l41 234h510l-41 -234h-137l-604 -1026h143l-41 -233h-532l41 233h137l105 180l-183 846h-143zM537 1407l598 307l69 -219l-612 -266z" />
<glyph unicode="&#xfe;" horiz-adv-x="1351" d="M-35 -399l41 233h139l246 1395h-139l41 233h391l-96 -540q152 184 391 184q231 0 365.5 -165t93.5 -398q-41 -227 -229.5 -393t-413.5 -166q-242 0 -342 170l-56 -320h142l-41 -233h-533zM520 545q-25 -137 55 -233.5t218 -96.5q135 0 248.5 96.5t138.5 231.5 q23 135 -54 234.5t-213 99.5q-139 0 -253.5 -96.5t-139.5 -235.5z" />
<glyph unicode="&#xff;" horiz-adv-x="1228" d="M166 860l41 234h516l-41 -234h-107l101 -534l301 534h-107l41 234h510l-41 -234h-137l-604 -1026h143l-41 -233h-532l41 233h137l105 180l-183 846h-143zM510 1198l47 264h250l-47 -264h-250zM891 1198l47 264h250l-47 -264h-250z" />
<glyph unicode="&#x131;" horiz-adv-x="614" d="M39 0l41 233h143l111 627h-141l40 234h392l-152 -861h141l-41 -233h-534z" />
<glyph unicode="&#x152;" horiz-adv-x="2252" d="M170 737q55 311 316.5 537.5t570.5 226.5q307 0 446 -250l37 211h924l-76 -432h-279l33 189h-368l-66 -369h416l-39 -219h-416l-67 -385h368l35 194h279l-78 -440h-924l39 217q-215 -246 -526 -246q-322 0 -501 222t-124 544zM449 729q-35 -197 79.5 -338t311.5 -141 q195 0 358.5 142.5t198.5 338.5q35 199 -76 346.5t-307 147.5q-203 0 -366.5 -145.5t-198.5 -350.5z" />
<glyph unicode="&#x153;" horiz-adv-x="2129" d="M123 551q43 240 245.5 407.5t444.5 167.5q158 0 281 -82q49 -31 74.5 -59.5t52.5 -81.5l6 -16q92 115 226 175t278 60q236 0 378 -165.5t101 -399.5l-25 -94h-899q4 -111 82 -178.5t195 -67.5q160 0 284 117h285q-96 -166 -261 -264.5t-347 -98.5q-141 0 -252 59.5 t-164 174.5q-90 -113 -223 -173.5t-273 -60.5q-246 0 -388 169t-101 411zM362.5 549q-24.5 -137 59.5 -235.5t225 -98.5t259 99.5t141 236.5q25 139 -59.5 236.5t-225.5 97.5q-139 0 -257 -99.5t-142.5 -236.5zM1325 649h631q-23 111 -95.5 172.5t-189.5 61.5 q-104 0 -202.5 -67t-143.5 -167z" />
<glyph unicode="&#x178;" horiz-adv-x="1392" d="M231 1229l41 233h566l-41 -233h-135l159 -484l330 484h-139l41 233h563l-41 -233h-145l-512 -719l-50 -277h160l-41 -233h-596l41 233h158l49 277l-260 719h-148zM637 1567l47 264h250l-47 -264h-250zM1018 1567l47 264h250l-47 -264h-250z" />
<glyph unicode="&#x192;" d="M74 -291l76 205q111 2 157.5 47t87.5 152l228 620h-144l82 217h141q6 18 36 102.5t45.5 119t52 92t82.5 98.5q156 137 409 137l-74 -203q-66 2 -112.5 -18.5t-75.5 -62t-45 -78.5t-35.5 -97.5t-32.5 -91.5h144l-80 -215h-144l-227 -620q-76 -207 -211 -304.5t-360 -99.5z " />
<glyph unicode="&#x2c6;" d="M373 1292l415 344h173l292 -344h-282l-131 154l-185 -154h-282z" />
<glyph unicode="&#x2da;" horiz-adv-x="778" d="M406 1468q18 98 102 168t182 70t154.5 -71.5t40 -170t-99.5 -169t-181 -70.5q-100 0 -157 70.5t-41 172.5zM549 1462q-8 -39 16.5 -66.5t63.5 -27.5q41 0 73.5 29.5t38.5 70.5q8 39 -15.5 67t-61.5 28q-41 0 -74 -30t-41 -71z" />
<glyph unicode="&#x2dc;" horiz-adv-x="1064" d="M410 1483q104 76 219 76q57 0 147 -29q80 -31 142 -31q96 0 167 55l93 -165q-121 -92 -246 -93q-59 0 -148.5 31t-128.5 31q-72 0 -147 -60z" />
<glyph unicode="&#x3a9;" horiz-adv-x="1511" d="M84 0l35 203h295l2 6q-223 244 -160 604q51 289 268 486.5t500 197.5q195 0 325 -101.5t174 -252t15 -318.5q-35 -195 -140.5 -355.5t-236.5 -260.5l-2 -6h299l-35 -203h-555l27 150q131 76 234.5 232.5t144.5 389.5q37 211 -37 363.5t-250 152.5t-309 -147.5 t-174 -376.5q-39 -219 10 -382t152 -232l-27 -150h-555z" />
<glyph unicode="&#x3c0;" horiz-adv-x="1267" d="M119 0q84 178 170 442.5t123 450.5q-143 0 -217 -23l-2 166q109 70 354 70h885l-58 -213h-153l-103 -578q-37 -207 -26 -315h-244q-25 66 16 301l105 592h-310q-47 -209 -133 -477.5t-164 -415.5h-243z" />
<glyph unicode="&#x2000;" horiz-adv-x="1024" />
<glyph unicode="&#x2001;" horiz-adv-x="2048" />
<glyph unicode="&#x2002;" horiz-adv-x="1024" />
<glyph unicode="&#x2003;" horiz-adv-x="2048" />
<glyph unicode="&#x2004;" horiz-adv-x="681" />
<glyph unicode="&#x2005;" horiz-adv-x="512" />
<glyph unicode="&#x2006;" horiz-adv-x="339" />
<glyph unicode="&#x2007;" />
<glyph unicode="&#x2008;" horiz-adv-x="614" />
<glyph unicode="&#x2009;" horiz-adv-x="204" />
<glyph unicode="&#x200a;" horiz-adv-x="20" />
<glyph unicode="&#x200b;" horiz-adv-x="0" />
<glyph unicode="&#x200c;" horiz-adv-x="0" />
<glyph unicode="&#x200d;" horiz-adv-x="0" />
<glyph unicode="&#x200e;" horiz-adv-x="681" />
<glyph unicode="&#x200f;" horiz-adv-x="681" />
<glyph unicode="&#x2010;" horiz-adv-x="655" d="M139 414l43 248h525l-43 -248h-525z" />
<glyph unicode="&#x2011;" horiz-adv-x="655" d="M139 414v248h568v-248h-568z" />
<glyph unicode="&#x2012;" d="M139 414v248h1100v-248h-1100z" />
<glyph unicode="&#x2013;" horiz-adv-x="1024" d="M61 414l43 248h1049l-43 -248h-1049z" />
<glyph unicode="&#x2014;" horiz-adv-x="2048" d="M61 414l43 248h2073l-43 -248h-2073z" />
<glyph unicode="&#x2015;" horiz-adv-x="4096" d="M139 414v248h4008v-248h-4008z" />
<glyph unicode="&#x2016;" horiz-adv-x="1777" d="M1362 -575v2304h207v-2304h-207zM473 -575v2304h207v-2304h-207z" />
<glyph unicode="&#x2018;" horiz-adv-x="409" d="M229 879l58 329q23 131 84 193q41 41 78.5 51t101.5 10h39l-25 -139l-24 2q-39 0 -63.5 -21.5t-32 -45t-13.5 -62.5l-4 -29h111l-52 -288h-258z" />
<glyph unicode="&#x2019;" horiz-adv-x="409" d="M229 879l25 139l22 -2q39 0 64 22.5t32 45t15 63.5l4 27h-112l51 288h260l-58 -329q-27 -131 -86 -191q-39 -41 -77.5 -52t-100.5 -11h-39z" />
<glyph unicode="&#x201a;" horiz-adv-x="409" d="M23 -295l24 139h27q39 0 61.5 21.5t29.5 43t15 64.5l4 27h-110l51 289h258l-57 -328q-27 -135 -84 -192q-41 -41 -80 -52.5t-101 -11.5h-38z" />
<glyph unicode="&#x201c;" horiz-adv-x="778" d="M227 879l58 329q8 47 14 71t23.5 58.5t48.5 63.5q41 39 79.5 50t100.5 11h39l-25 -139l-26 2q-39 0 -62.5 -21.5t-31 -45t-13.5 -64.5l-4 -27h111l-52 -288h-260zM606 879l58 329q23 129 86 193q41 41 78.5 51t101.5 10h39l-25 -139l-26 2q-39 0 -63 -21.5t-31 -45 t-13 -62.5l-4 -29h111l-52 -288h-260z" />
<glyph unicode="&#x201d;" horiz-adv-x="778" d="M229 879l25 139l22 -2q39 0 64 22.5t32 45t15 63.5l4 27h-112l51 288h260l-58 -329q-27 -131 -86 -191q-39 -41 -77.5 -52t-100.5 -11h-39zM608 879l25 139l22 -2q39 0 63.5 22.5t32 45t15.5 63.5l4 27h-113l52 288h260l-58 -329q-27 -131 -86 -191q-39 -41 -77.5 -52 t-100.5 -11h-39z" />
<glyph unicode="&#x201e;" horiz-adv-x="778" d="M23 -295l24 139l23 -2q39 0 63.5 22.5t31.5 45t15 63.5l4 27h-112l51 289h258l-59 -330q-23 -133 -82 -192q-39 -39 -78 -50.5t-101 -11.5h-38zM401 -295l25 139h25q39 0 62.5 21.5t30.5 43t15 64.5l4 27h-112l51 289h258l-58 -328q-10 -51 -15 -73.5t-22.5 -57.5 t-46.5 -61q-39 -41 -77.5 -52.5t-100.5 -11.5h-39z" />
<glyph unicode="&#x2020;" d="M215 844l33 194h393l76 424h268l-76 -424h396l-33 -194h-395l-197 -1112h-268l196 1112h-393z" />
<glyph unicode="&#x2021;" d="M150 463l34 194h389l37 213h-389l35 195h389l70 397h270l-70 -397h394l-35 -195h-393l-37 -213h393l-35 -194h-393l-129 -731h-270l129 731h-389z" />
<glyph unicode="&#x2022;" horiz-adv-x="1228" d="M354 367l129 731h652l-129 -731h-652z" />
<glyph unicode="&#x2024;" horiz-adv-x="614" d="M178 0l51 289h258l-51 -289h-258z" />
<glyph unicode="&#x2025;" horiz-adv-x="1228" d="M792 0l51 289h258l-51 -289h-258zM178 0l51 289h258l-51 -289h-258z" />
<glyph unicode="&#x2026;" horiz-adv-x="2048" d="M213 0l51 289h258l-51 -289h-258zM895 0l51 289h258l-51 -289h-258zM1577 0l51 289h258l-51 -289h-258z" />
<glyph unicode="&#x202a;" horiz-adv-x="0" />
<glyph unicode="&#x202f;" horiz-adv-x="415" />
<glyph unicode="&#x2030;" horiz-adv-x="2621" d="M283 1135q27 147 151.5 252.5t272.5 105.5q152 0 239.5 -106.5t61.5 -256.5q-27 -152 -151 -258t-275 -106q-154 0 -241 107.5t-58 261.5zM465 0l917 1462h201l-915 -1462h-203zM496 1133q-12 -66 23.5 -110t98.5 -44q61 0 113.5 44t63.5 105q10 63 -26 107.5t-99 44.5 q-61 0 -112.5 -43t-61.5 -104zM1047 346q27 147 151.5 253t271.5 106q152 0 241 -105.5t63 -255.5q-29 -152 -154 -259.5t-274 -107.5q-154 0 -241 107.5t-58 261.5zM1257 344q-12 -63 25 -108.5t100 -45.5q61 0 112.5 45.5t61.5 106.5q12 61 -24.5 106.5t-98 45.5 t-114 -43.5t-62.5 -106.5zM1874 346q27 147 152.5 253t273.5 106q150 0 239 -105.5t62 -255.5q-29 -152 -153 -259.5t-275 -107.5q-154 0 -241 107.5t-58 261.5zM2087 344q-12 -63 23.5 -108.5t99.5 -45.5q61 0 113.5 45.5t62.5 106.5q12 61 -25 106.5t-98 45.5 t-113.5 -43.5t-62.5 -106.5z" />
<glyph unicode="&#x2032;" horiz-adv-x="409" d="M281 874l51 588h258l-160 -588h-149z" />
<glyph unicode="&#x2033;" horiz-adv-x="819" d="M691 874l51 588h258l-160 -588h-149zM281 874l51 588h258l-160 -588h-149z" />
<glyph unicode="&#x2034;" horiz-adv-x="1228" d="M1100 874l51 588h258l-160 -588h-149zM691 874l51 588h258l-160 -588h-149zM281 874l51 588h258l-160 -588h-149z" />
<glyph unicode="&#x2035;" horiz-adv-x="942" d="M408 1485l139 221l495 -295l-114 -182z" />
<glyph unicode="&#x2036;" horiz-adv-x="1884" d="M1350 1485l139 221l495 -295l-114 -182zM408 1485l139 221l495 -295l-114 -182z" />
<glyph unicode="&#x2037;" horiz-adv-x="2826" d="M2292 1485l139 221l495 -295l-114 -182zM1350 1485l139 221l495 -295l-114 -182zM408 1485l139 221l495 -295l-114 -182z" />
<glyph unicode="&#x2039;" horiz-adv-x="409" d="M154 451l34 194l304 291l-31 -236l-160 -161l105 -160l-52 -221z" />
<glyph unicode="&#x203a;" horiz-adv-x="409" d="M113 158l28 221l156 160l-100 161l53 236l203 -291l-35 -194z" />
<glyph unicode="&#x203c;" horiz-adv-x="819" d="M486 0l51 289h258l-51 -289h-258zM564 438l180 1024h258l-180 -1024h-258zM76 0l51 289h258l-51 -289h-258zM154 438l180 1024h258l-180 -1024h-258z" />
<glyph unicode="&#x203e;" horiz-adv-x="614" d="M-373 123l37 200h786l-37 -200h-786z" />
<glyph unicode="&#x2044;" horiz-adv-x="163" d="M-346 0l917 1462h201l-913 -1462h-205z" />
<glyph unicode="&#x2047;" horiz-adv-x="2211" d="M1356 999q35 209 203 355.5t376 146.5q195 0 311.5 -142t84.5 -337q-16 -94 -60.5 -165t-100.5 -117t-113.5 -88t-108.5 -103.5t-78 -138.5h-258q20 119 85.5 203.5t186.5 181.5q59 45 83 65.5t54.5 64.5t38.5 91q16 88 -35 153.5t-139 65.5q-100 0 -174 -67.5 t-92 -168.5h-264zM1540 0l51 289h258l-51 -289h-258zM250 999q35 209 203 355.5t376 146.5q195 0 311.5 -142t84.5 -337q-16 -94 -60.5 -165t-100.5 -117t-113.5 -88t-108.5 -103.5t-78 -138.5h-258q20 119 85.5 203.5t186.5 181.5q59 45 83 65.5t54.5 64.5t38.5 91 q16 88 -35 153.5t-139 65.5q-100 0 -174 -67.5t-92 -168.5h-264zM434 0l51 289h258l-51 -289h-258z" />
<glyph unicode="&#x2048;" horiz-adv-x="1515" d="M1182 0l51 289h258l-51 -289h-258zM1260 438l180 1024h258l-180 -1024h-258zM250 999q35 209 203 355.5t376 146.5q195 0 311.5 -142t84.5 -337q-16 -94 -60.5 -165t-100.5 -117t-113.5 -88t-108.5 -103.5t-78 -138.5h-258q20 119 85.5 203.5t186.5 181.5q59 45 83 65.5 t54.5 64.5t38.5 91q16 88 -35 153.5t-139 65.5q-100 0 -174 -67.5t-92 -168.5h-264zM434 0l51 289h258l-51 -289h-258z" />
<glyph unicode="&#x2049;" horiz-adv-x="1515" d="M660 999q35 209 203 355.5t376 146.5q195 0 311.5 -142t84.5 -337q-16 -94 -60.5 -165t-100.5 -117t-113.5 -88t-108.5 -103.5t-78 -138.5h-258q20 119 85.5 203.5t186.5 181.5q59 45 83 65.5t54.5 64.5t38.5 91q16 88 -35 153.5t-139 65.5q-100 0 -174 -67.5t-92 -168.5 h-264zM844 0l51 289h258l-51 -289h-258zM76 0l51 289h258l-51 -289h-258zM154 438l180 1024h258l-180 -1024h-258z" />
<glyph unicode="&#x2057;" horiz-adv-x="1638" d="M1510 874l51 588h258l-160 -588h-149zM1100 874l51 588h258l-160 -588h-149zM691 874l51 588h258l-160 -588h-149zM281 874l51 588h258l-160 -588h-149z" />
<glyph unicode="&#x205f;" horiz-adv-x="520" />
<glyph unicode="&#x2060;" horiz-adv-x="0" />
<glyph unicode="&#x20a8;" horiz-adv-x="2252" d="M1362 0l55 317h256q-1 -10 0 -19q0 -60 33 -99q39 -45 115 -45q59 0 111.5 37.5t62.5 97.5q2 13 2 24q0 31 -16 54q-23 31 -51.5 42t-77.5 25q-10 2 -17 4q-70 18 -110.5 31.5t-97 42.5t-84 62.5t-43.5 88.5q-9 30 -8 65q0 28 5 58q27 152 151 241t277 89q170 0 232 -98 l12 76h184l-51 -297h-241q1 9 1 17q0 45 -28 76q-33 36 -92 36q-55 0 -103.5 -31t-56.5 -84q-6 -37 4 -62.5t39 -42t50.5 -22.5t60.5 -16q70 -16 114.5 -30.5t100 -42.5t84 -62.5t44.5 -90.5q9 -31 8 -66q0 -29 -5 -61q-29 -160 -159 -252t-292 -92q-180 0 -262 119l-16 -90 h-191zM45 0l41 233h158l176 996h-158l41 233h653q125 0 211 -22.5t152 -89.5q116 -116 116 -284q0 -48 -10 -101q-29 -166 -152.5 -296t-287.5 -145l176 -291h166l-41 -233h-342l-346 657l-76 -424h125l-41 -233h-561zM602 684h152q164 0 254 59q115 80 137 211q6 30 5 58 q0 93 -65 149q-25 25 -60.5 36t-61 13t-76.5 2h-193z" />
<glyph unicode="&#x20ac;" d="M102 578l21 116h133l8 49q10 55 12 60h-135l21 117h143q80 260 238.5 420.5t376.5 160.5q203 0 245 -180l25 147h188l-82 -475h-235q8 258 -180 258q-205 0 -308 -331h373l-20 -117h-381l-13 -62l-8 -47h383l-20 -116h-375q-31 -356 195 -357q213 0 290 260h236 q-152 -510 -571 -510q-109 0 -204.5 52.5t-152.5 160.5q-78 152 -61 394h-142z" />
<glyph unicode="&#x2122;" horiz-adv-x="2007" d="M238 1346l20 116h676l-21 -116h-264l-127 -717h-145l127 717h-266zM934 629l147 833h213l133 -588l355 588h209l-148 -833h-129l127 717l-416 -717h-77l-156 717l-127 -717h-131z" />
<glyph unicode="&#x2202;" horiz-adv-x="1210" d="M166 479q43 248 202.5 399.5t352.5 151.5q117 0 190.5 -58.5t98.5 -117.5h4l12 74q37 219 -38 372.5t-234 153.5q-158 0 -295 -100l-43 184q186 123 407 123q244 0 374 -211t63 -594q-70 -395 -269.5 -634.5t-476.5 -239.5q-141 0 -229 77.5t-113.5 188t-5.5 231.5z M414 471q-23 -121 21 -202t138 -81h2q117 0 220.5 136.5t154.5 316.5q-10 66 -67.5 127t-149.5 61q-111 0 -202.5 -106.5t-116.5 -251.5z" />
<glyph unicode="&#x2206;" horiz-adv-x="1392" d="M57 0l27 150l735 1357h297l244 -1355l-27 -152h-1276zM350 203h748l-129 651q-6 49 -30 190.5t-28 190.5h-6q-16 -37 -81.5 -164t-92.5 -184z" />
<glyph unicode="&#x220f;" horiz-adv-x="1781" d="M311 1245v230h1420v-230h-220v-1448h-249v1448h-482v-1448h-250v1448h-219z" />
<glyph unicode="&#x2211;" horiz-adv-x="1441" d="M309 -41l522 676l-501 663v177h1038v-215h-698v-7l444 -577l-491 -639v-8h780v-234h-1094v164z" />
<glyph unicode="&#x221a;" horiz-adv-x="1513" d="M332 713l350 141l229 -690q8 -35 22.5 -96.5t18.5 -79.5l4 -2q2 14 13.5 80.5t19.5 107.5l367 1591h176l-475 -2064h-205l-320 932l-157 -62z" />
<glyph unicode="&#x221e;" horiz-adv-x="1816" d="M270 598q0 158 100.5 258t250.5 100q111 0 200.5 -61t182.5 -176q111 125 165 164q100 76 220 73q141 0 233 -96t92 -250v-2q0 -162 -101.5 -262t-236.5 -100q-98 0 -187 54t-194 187q-98 -119 -187 -180t-206 -61q-135 0 -233.5 100t-98.5 252zM416 596q0 -88 58 -149.5 t147 -61.5h2q55 0 115.5 38t89 68.5t90.5 100.5q-63 84 -91 117.5t-88.5 72.5t-126.5 39q-90 0 -143 -63.5t-53 -161.5zM1073 606q102 -125 166 -173t141 -48q84 0 136.5 66.5t52.5 146.5q0 98 -53.5 160.5t-141.5 62.5h-2q-37 0 -72.5 -13t-71.5 -43t-55.5 -48.5 t-56.5 -61.5t-43 -49z" />
<glyph unicode="&#x222b;" horiz-adv-x="1089" d="M305 -326l33 179q51 -23 92 -23q59 0 94 43q59 82 60 334q0 193 -15.5 531.5t-15.5 514.5q0 182 28.5 292t96.5 179q86 94 240 95q80 0 129 -25l-29 -172q-37 18 -76 18q-68 0 -106 -53q-59 -76 -60 -358q0 -168 15.5 -499t15.5 -521q0 -285 -80 -424q-78 -145 -262 -145 q-99 -1 -160 34z" />
<glyph unicode="&#x2248;" horiz-adv-x="1337" d="M250 346q49 96 131 155.5t174 59.5q31 0 57.5 -5t53 -15.5t42 -17.5t41 -21.5t33.5 -18.5q12 -6 38 -22.5t38 -22.5t32.5 -15t39 -13t39.5 -4q57 0 99 35.5t95 115.5l90 -82q-115 -215 -286 -215q-59 0 -107.5 19.5t-132.5 66.5q-117 72 -184 72q-45 0 -85 -26.5 t-59.5 -51.5t-56.5 -78zM250 735q49 96 130 155.5t175 59.5q25 0 49.5 -4t42 -9t41 -15.5t33.5 -16.5t32.5 -18.5t28.5 -16.5q4 -2 23.5 -13t24 -14t19.5 -11.5t21 -11.5l19 -9q12 -6 19 -7t18.5 -4t21.5 -4t21 -1q59 0 102 36.5t92 116.5l90 -84q-113 -215 -284 -215 q-59 0 -109.5 19.5t-132.5 66.5q-117 70 -184 70q-43 0 -83 -25.5t-61.5 -50t-56.5 -76.5z" />
<glyph unicode="&#x2260;" horiz-adv-x="1370" d="M301 307v146h350l127 290h-477v148h533l106 237l117 -47l-86 -190h297v-148h-353l-129 -290h482v-146h-539l-106 -244l-117 50l88 194h-293z" />
<glyph unicode="&#x2264;" horiz-adv-x="1402" d="M336 -20v149h967v-149h-967zM346 682v158l948 473v-172l-800 -377v-4l800 -379v-172z" />
<glyph unicode="&#x2265;" horiz-adv-x="1400" d="M338 -20v149h960v-149h-960zM348 1141v172l950 -473v-160l-948 -471v172l799 379v4z" />
<glyph unicode="&#x25ca;" horiz-adv-x="1513" d="M373 735l422 840h200l414 -840l-424 -837h-201zM594 741l254 -526q25 -63 37 -117h8q18 74 37 115l256 516l-252 518q-33 90 -39 123h-6q-18 -68 -41 -123z" />
<glyph unicode="&#xe000;" horiz-adv-x="1095" d="M0 1095h1095v-1095h-1095v1095z" />
<glyph unicode="&#xfb01;" horiz-adv-x="1105" d="M35 0l41 233h141l111 627h-142l41 234h142q66 412 495 407l-39 -219q-184 6 -207 -188h533l-152 -861h142l-41 -233h-1065zM467 233h283l110 627h-282zM920 1198l47 264h250l-48 -264h-249z" />
<glyph unicode="&#xfb02;" horiz-adv-x="1105" d="M35 0l41 233h141l111 627h-142l41 234h142q41 223 167 315t353 92h332l-224 -1268h142l-41 -233h-1063zM467 233h281l184 1049h-53q-125 0 -184.5 -34t-76.5 -154h144l-41 -234h-143z" />
</font>
</defs>
</svg>
